<?xml version="1.0" encoding="UTF-8" standalone="no"?>
<svg width="50px" height="50px" viewBox="0 0 50 50" version="1.1" xmlns="http://www.w3.org/2000/svg" xmlns:xlink="http://www.w3.org/1999/xlink">
    <!-- Generator: Sketch 40 (33762) - http://www.bohemiancoding.com/sketch -->
    <title>Path 3 Copy 15</title>
    <desc>Created with Sketch.</desc>
    <defs>
        <linearGradient x1="50%" y1="100%" x2="50%" y2="0%" id="linearGradient-1">
            <stop stop-color="#5341CF" offset="0%"></stop>
            <stop stop-color="#A900FF" offset="41.0953444%"></stop>
            <stop stop-color="#FA00A6" offset="100%"></stop>
        </linearGradient>
    </defs>
    <g id="Wireframes" stroke="none" stroke-width="1" fill="none" fill-rule="evenodd" stroke-linecap="round">
        <path d="M26.6036275,26.3071425 C26.6036275,26.3071425 25.4228649,24.3131319 24.0982757,24.2065785 C22.7736864,24.1000251 21.6555053,24.6751638 21.3022797,25.8806883 C20.9490542,27.0862129 5.02982276,22.7918773 6.70721635,23.6316317 C8.38460995,24.4713861 25.8708765,29.1995013 27.1690623,28.8177788 C28.4672482,28.4360562 28.815381,28.4233369 29.3769004,26.99729 C29.9384198,25.5712431 30.3352202,25.0590141 29.2363343,23.56769 C28.1374484,22.0763659 11.1031556,5.79087057 9.25640426,5.19317208 C7.40965292,4.59547359 23.0555852,20.3859248 21.5427216,21.077663 C20.0298581,21.7694013 19.9153407,22.622884 19.3813867,24.4073871 C18.8474326,26.1918903 41.5119196,6.87693292 42.9472753,8.7522408 C44.3826309,10.6275487 21.4993294,29.9275285 24.2673777,30.7909877 C27.035426,31.654447 27.6314191,33.5940565 30.0760315,31.6370262 C32.5206438,29.6799959 32.3940878,25.7807659 32.7483715,24.0015423 C33.1026553,22.2223188 33.4090415,21.595129 32.330901,20.3130049 C31.2527605,19.0308808 30.4522124,19.7977439 28.5895192,19.0558372 C26.7268259,18.3139305 26.5995387,17.6967501 24.9422003,17.3701016 C23.284862,17.0434531 22.3708121,17.4010765 21.4655689,17.6517621 C20.5603256,17.9024478 20.9780132,17.8500817 19.8738963,18.7736482 C18.7697793,19.6972148 18.8158414,18.9421655 17.7654057,20.7468572 C16.71497,22.551549 16.7075382,22.7314395 16.3560462,24.8174595 C16.0045542,26.9034795 15.0126901,26.8209716 16.3560462,29.111065 C17.6994022,31.4011585 17.5458646,31.2955771 20.9899695,32.7171652 C24.4340743,34.1387534 44.8782174,48.1660355 47.3433374,48.1940781 C49.8084574,48.2221206 31.3005486,35.6099776 33.3930729,32.8582597 C35.4855973,30.1065419 18.7313923,49.989524 19.167367,47.5163102 C19.6033416,45.0430964 36.0528384,22.2740088 35.6479425,20.0667501 C35.2430465,17.8594914 35.2913686,17.2143609 33.6747335,15.8851746 C32.0580983,14.5559884 22.7120881,42.3551258 19.8738963,41.8486734 C17.0357045,41.342221 28.4726979,3.51425333 25.7940765,3.54837508 C23.1154551,3.58249683 19.7618489,14.156477 18.1284465,14.9101959 C16.4950441,15.6639148 16.4027819,16.3078903 15.5443565,17.723102 C14.6859312,19.1383138 5.82842903,18.7121415 5.52931522,20.3130049 C5.2302014,21.9138683 47.3789728,2.38633653 47.3433374,4.0654731 C47.3077019,5.74460967 14.2505821,25.5270483 14.3284075,27.5907323 C14.4062328,29.6544164 13.2358522,29.7281758 14.6105964,31.7136505 C15.9853406,33.6991253 16.2719449,33.4238034 19.167367,34.5794011 C22.062789,35.7349987 21.2109997,35.2254783 25.3221514,35.9887606 C29.4333032,36.7520429 30.8591821,38.2562216 33.5922962,37.257554 C36.3254103,36.2588865 36.2078725,33.9674714 37.4747725,31.5482477 C38.7416725,29.1290239 38.807803,29.5639732 39.306887,26.3451904 C39.8059711,23.1264077 39.5198478,21.707571 39.306887,19.7322452 C39.0939263,17.7569194 39.5438812,17.8361597 38.1791881,15.8851746 C36.8144949,13.9341896 36.2584908,13.6727688 34.3854903,12.696545 C32.5124898,11.7203212 33.2561924,12.3790901 30.1685091,11.7099405 C27.0808259,11.0407909 26.8298873,10.5422665 23.9783189,10.441147 C21.1267505,10.3400276 20.8823392,10.0652975 18.2468179,11.2871855 C15.6112967,12.5090735 2.97306014,9.53383487 1.72927615,11.1101568 C0.485492156,12.6864788 12.76701,16.8598914 12.0978464,19.0801456 C11.4286827,21.3003998 11.6168945,21.1078079 11.1112419,23.6316317 C10.6055892,26.1554555 10.1646268,27.6423992 10.1716689,28.6941229 C10.1787109,29.7458466 10.1840959,29.0835417 11.1582733,30.6557061 C12.1324508,32.2278706 12.32459,32.2657628 13.2725768,33.6984853 C14.2205637,35.1312078 11.8327197,35.1158667 15.0988785,36.6112673 C18.3650372,38.1066679 0.663016009,42.0638001 2.85116225,42.5530889 C5.03930849,43.0423777 24.5268814,38.8258934 26.9978466,39.2719816 C29.4688117,39.7180698 29.6900298,39.7968479 32.024932,39.6947366 C34.3598343,39.5926253 35.7047597,39.2681619 36.6646682,38.8492266 C37.6245768,38.4302914 36.7176797,39.2967091 38.0269963,37.0752409 C39.3363128,34.8537727 39.3606867,34.8544096 40.4171474,32.4825362 C41.4736081,30.1106628 33.7200653,31.9445133 34.3854903,27.5907323 C35.0509153,23.2369514 42.7423117,20.9554671 42.525638,18.6869835 C42.3089642,16.4184998 43.4151546,17.6441464 40.9757124,14.3294362 C38.5362702,11.0147261 37.9729956,10.1157036 34.9789327,8.43253232 C31.9848697,6.74936107 44.690821,4.74416677 40.9757124,4.3830678 C37.2606039,4.02196883 27.0060571,5.49503018 22.3992707,6.64784471 C17.7924843,7.80065923 14.0840585,8.6679036 11.6470838,11.1101568 C9.21010915,13.5524101 3.67515136,19.0537083 2.85116225,21.8225684 C2.02717313,24.5914285 8.15271441,19.2228804 7.84704476,23.8794718 C7.54137511,28.5360633 34.0099757,0.989067512 34.3854903,2.8771213 C34.7610049,4.7651751 7.83136198,34.7173683 10.3841032,36.6355757 C12.9368445,38.5537832 11.6339176,37.5227051 16.3972648,39.4072632 C21.1606119,41.2918214 5.59494039,24.3745978 10.1716689,25.3324293 C14.7483973,26.2902608 32.8558249,43.9245833 35.4788404,43.4007127 C38.101856,42.8768422 38.1243608,41.9252014 40.0604478,40.0403389 C41.9965348,38.1554763 41.4310494,39.62583 43.3891399,35.6997018 C45.3472303,31.7735736 45.8369582,29.8714643 46.3959848,27.3370793 C46.9550115,24.8026944 8.60777605,6.37881155 8.26979977,2.40985881 C7.93182348,-1.55909393 46.0049287,16.3352814 45.2740987,14.162448 C44.5432688,11.9896146 45.6221976,13.4414272 42.4664771,10.385132 C39.3107565,7.32883687 40.0705881,6.93807517 35.6130899,4.80582281 C31.1555918,2.67357044 30.080053,2.50830496 25.7940765,2.40985881 C21.5080999,2.31141265 50.9949534,34.4784326 47.3433374,35.9887606 C43.6917213,37.4990885 12.9383371,6.26112556 10.4596955,8.7522408 C7.98105391,11.243356 8.31620937,10.8935558 6.70721635,14.9366181 C5.09822334,18.9796804 1.48943102,18.2167227 1.04030432,21.8225684 C0.591177629,25.4284142 4.02897783,27.3337187 4.72819448,30.8253366 C5.42741113,34.3169545 5.88108959,35.0540532 7.40634745,37.5434421 C8.9316053,40.0328309 7.17382166,39.3710017 11.4822342,41.8486734 C15.7906466,44.3263451 19.8867182,46.5218556 23.9783189,47.5163102 C27.932242,48.4773025 41.0018948,20.1646029 45.2740987,20.3130049 C45.4228591,20.3181723 29.2987405,46.2115684 29.4588339,46.2178464 C34.2166027,46.4044201 36.2123406,46.7839775 38.9956584,46.0767519 C41.7789763,45.3695263 41.2659548,45.744144 43.8816494,42.5530889 C46.4973441,39.3620339 46.8271696,38.1948474 47.9686335,35.1300394 C49.1100973,32.0652315 45.0719604,21.9864674 45.2740987,17.3701016 C45.4762371,12.7537358 49.2133918,23.2155994 48.6619517,19.2962791 C48.1105116,15.3769588 48.7877259,14.6445415 47.88831,12.0198201 C46.9888942,9.39509879 8.50357327,48.7286409 5.95721008,45.9055361 C3.41084689,43.0824313 40.1253953,2.99548149 37.9958429,1.94588519 C35.8662904,0.896288885 36.4803089,1.58615393 33.2155406,1.10037517 C29.9507724,0.614596418 50.0499663,8.87829708 47.3433374,8.7522408 C44.6367084,8.62618451 24.2538796,-0.021360507 20.5889615,1.10037517 C16.9240434,2.22211085 15.6633723,3.39717889 14.2338408,4.0654731 C12.8043093,4.73376731 14.448898,2.53338983 11.2851246,5.19317208 C8.12135129,7.85295433 7.25176354,8.65246801 5.52931522,11.3833623 C3.80686689,14.1142565 4.45602026,13.8397411 3.42082462,17.6618026 C2.38562898,21.4838641 11.554175,15.1141859 11.2851246,18.6869835 C11.0160742,22.259781 2.08253517,30.4703291 2.29312564,32.6368418 C2.50371611,34.8033545 1.60260721,34.147798 2.85116225,36.9552842 C4.09971729,39.7627704 18.7377123,-0.430008005 21.3022797,1.94588519 C23.8668472,4.32177838 8.00096069,44.1484077 12.512171,45.9055361 C17.0233814,47.6626646 19.7389346,41.7547353 26.0582736,42.5530889 C32.3776125,43.3514425 30.5547948,48.6400874 34.8278225,48.7247836 C39.1008503,48.8094798 34.0151547,45.6349455 40.4171474,47.5163102 C46.8191401,49.3976749 0.506506056,4.047313 1.72927615,2.8771213 C2.95204624,1.70692961 46.7142148,46.205106 47.88831,44.2673605 C49.0624052,42.329615 48.6619517,39.9018866 48.6619517,40.0403389" id="Path-3-Copy-15" stroke="url(#linearGradient-1)"></path>
    </g>
</svg>