<?xml version="1.0" encoding="UTF-8" standalone="no"?>
<svg width="50px" height="50px" viewBox="0 0 50 50" version="1.1" xmlns="http://www.w3.org/2000/svg" xmlns:xlink="http://www.w3.org/1999/xlink">
    <!-- Generator: Sketch 40 (33762) - http://www.bohemiancoding.com/sketch -->
    <title>Path 3 Copy 13</title>
    <desc>Created with Sketch.</desc>
    <defs></defs>
    <g id="Wireframes" stroke="none" stroke-width="1" fill="none" fill-rule="evenodd" stroke-linecap="round">
        <g id="Tablet-Portrait-Copy" transform="translate(-253.000000, -944.000000)" stroke="#F4F4F4">
            <path d="M279.603628,970.307142 C279.603628,970.307142 278.422865,968.313132 277.098276,968.206579 C275.773686,968.100025 274.655505,968.675164 274.30228,969.880688 C273.949054,971.086213 258.029823,966.791877 259.707216,967.631632 C261.38461,968.471386 278.870877,973.199501 280.169062,972.817779 C281.467248,972.436056 281.815381,972.423337 282.3769,970.99729 C282.93842,969.571243 283.33522,969.059014 282.236334,967.56769 C281.137448,966.076366 264.103156,949.790871 262.256404,949.193172 C260.409653,948.595474 276.055585,964.385925 274.542722,965.077663 C273.029858,965.769401 272.915341,966.622884 272.381387,968.407387 C271.847433,970.19189 294.51192,950.876933 295.947275,952.752241 C297.382631,954.627549 274.499329,973.927528 277.267378,974.790988 C280.035426,975.654447 280.631419,977.594057 283.076031,975.637026 C285.520644,973.679996 285.394088,969.780766 285.748372,968.001542 C286.102655,966.222319 286.409041,965.595129 285.330901,964.313005 C284.25276,963.030881 283.452212,963.797744 281.589519,963.055837 C279.726826,962.313931 279.599539,961.69675 277.9422,961.370102 C276.284862,961.043453 275.370812,961.401076 274.465569,961.651762 C273.560326,961.902448 273.978013,961.850082 272.873896,962.773648 C271.769779,963.697215 271.815841,962.942165 270.765406,964.746857 C269.71497,966.551549 269.707538,966.73144 269.356046,968.81746 C269.004554,970.903479 268.01269,970.820972 269.356046,973.111065 C270.699402,975.401158 270.545865,975.295577 273.989969,976.717165 C277.434074,978.138753 297.878217,992.166035 300.343337,992.194078 C302.808457,992.222121 284.300549,979.609978 286.393073,976.85826 C288.485597,974.106542 271.731392,993.989524 272.167367,991.51631 C272.603342,989.043096 289.052838,966.274009 288.647942,964.06675 C288.243046,961.859491 288.291369,961.214361 286.674733,959.885175 C285.058098,958.555988 275.712088,986.355126 272.873896,985.848673 C270.035704,985.342221 281.472698,947.514253 278.794076,947.548375 C276.115455,947.582497 272.761849,958.156477 271.128447,958.910196 C269.495044,959.663915 269.402782,960.30789 268.544357,961.723102 C267.685931,963.138314 258.828429,962.712142 258.529315,964.313005 C258.230201,965.913868 300.378973,946.386337 300.343337,948.065473 C300.307702,949.74461 267.250582,969.527048 267.328407,971.590732 C267.406233,973.654416 266.235852,973.728176 267.610596,975.713651 C268.985341,977.699125 269.271945,977.423803 272.167367,978.579401 C275.062789,979.734999 274.211,979.225478 278.322151,979.988761 C282.433303,980.752043 283.859182,982.256222 286.592296,981.257554 C289.32541,980.258886 289.207873,977.967471 290.474773,975.548248 C291.741673,973.129024 291.807803,973.563973 292.306887,970.34519 C292.805971,967.126408 292.519848,965.707571 292.306887,963.732245 C292.093926,961.756919 292.543881,961.83616 291.179188,959.885175 C289.814495,957.93419 289.258491,957.672769 287.38549,956.696545 C285.51249,955.720321 286.256192,956.37909 283.168509,955.709941 C280.080826,955.040791 279.829887,954.542266 276.978319,954.441147 C274.126751,954.340028 273.882339,954.065298 271.246818,955.287186 C268.611297,956.509073 255.97306,953.533835 254.729276,955.110157 C253.485492,956.686479 265.76701,960.859891 265.097846,963.080146 C264.428683,965.3004 264.616894,965.107808 264.111242,967.631632 C263.605589,970.155456 263.164627,971.642399 263.171669,972.694123 C263.178711,973.745847 263.184096,973.083542 264.158273,974.655706 C265.132451,976.227871 265.32459,976.265763 266.272577,977.698485 C267.220564,979.131208 264.83272,979.115867 268.098878,980.611267 C271.365037,982.106668 253.663016,986.0638 255.851162,986.553089 C258.039308,987.042378 277.526881,982.825893 279.997847,983.271982 C282.468812,983.71807 282.69003,983.796848 285.024932,983.694737 C287.359834,983.592625 288.70476,983.268162 289.664668,982.849227 C290.624577,982.430291 289.71768,983.296709 291.026996,981.075241 C292.336313,978.853773 292.360687,978.85441 293.417147,976.482536 C294.473608,974.110663 286.720065,975.944513 287.38549,971.590732 C288.050915,967.236951 295.742312,964.955467 295.525638,962.686983 C295.308964,960.4185 296.415155,961.644146 293.975712,958.329436 C291.53627,955.014726 290.972996,954.115704 287.978933,952.432532 C284.98487,950.749361 297.690821,948.744167 293.975712,948.383068 C290.260604,948.021969 280.006057,949.49503 275.399271,950.647845 C270.792484,951.800659 267.084059,952.667904 264.647084,955.110157 C262.210109,957.55241 256.675151,963.053708 255.851162,965.822568 C255.027173,968.591429 261.152714,963.22288 260.847045,967.879472 C260.541375,972.536063 287.009976,944.989068 287.38549,946.877121 C287.761005,948.765175 260.831362,978.717368 263.384103,980.635576 C265.936845,982.553783 264.633918,981.522705 269.397265,983.407263 C274.160612,985.291821 258.59494,968.374598 263.171669,969.332429 C267.748397,970.290261 285.855825,987.924583 288.47884,987.400713 C291.101856,986.876842 291.124361,985.925201 293.060448,984.040339 C294.996535,982.155476 294.431049,983.62583 296.38914,979.699702 C298.34723,975.773574 298.836958,973.871464 299.395985,971.337079 C299.955011,968.802694 261.607776,950.378812 261.2698,946.409859 C260.931823,942.440906 299.004929,960.335281 298.274099,958.162448 C297.543269,955.989615 298.622198,957.441427 295.466477,954.385132 C292.310757,951.328837 293.070588,950.938075 288.61309,948.805823 C284.155592,946.67357 283.080053,946.508305 278.794076,946.409859 C274.5081,946.311413 303.994953,978.478433 300.343337,979.988761 C296.691721,981.499088 265.938337,950.261126 263.459695,952.752241 C260.981054,955.243356 261.316209,954.893556 259.707216,958.936618 C258.098223,962.97968 254.489431,962.216723 254.040304,965.822568 C253.591178,969.428414 257.028978,971.333719 257.728194,974.825337 C258.427411,978.316955 258.88109,979.054053 260.406347,981.543442 C261.931605,984.032831 260.173822,983.371002 264.482234,985.848673 C268.790647,988.326345 272.886718,990.521856 276.978319,991.51631 C280.932242,992.477302 294.001895,964.164603 298.274099,964.313005 C298.422859,964.318172 282.29874,990.211568 282.458834,990.217846 C287.216603,990.40442 289.212341,990.783978 291.995658,990.076752 C294.778976,989.369526 294.265955,989.744144 296.881649,986.553089 C299.497344,983.362034 299.82717,982.194847 300.968633,979.130039 C302.110097,976.065232 298.07196,965.986467 298.274099,961.370102 C298.476237,956.753736 302.213392,967.215599 301.661952,963.296279 C301.110512,959.376959 301.787726,958.644541 300.88831,956.01982 C299.988894,953.395099 261.503573,992.728641 258.95721,989.905536 C256.410847,987.082431 293.125395,946.995481 290.995843,945.945885 C288.86629,944.896289 289.480309,945.586154 286.215541,945.100375 C282.950772,944.614596 303.049966,952.878297 300.343337,952.752241 C297.636708,952.626185 277.25388,943.978639 273.588962,945.100375 C269.924043,946.222111 268.663372,947.397179 267.233841,948.065473 C265.804309,948.733767 267.448898,946.53339 264.285125,949.193172 C261.121351,951.852954 260.251764,952.652468 258.529315,955.383362 C256.806867,958.114257 257.45602,957.839741 256.420825,961.661803 C255.385629,965.483864 264.554175,959.114186 264.285125,962.686983 C264.016074,966.259781 255.082535,974.470329 255.293126,976.636842 C255.503716,978.803354 254.602607,978.147798 255.851162,980.955284 C257.099717,983.76277 271.737712,943.569992 274.30228,945.945885 C276.866847,948.321778 261.000961,988.148408 265.512171,989.905536 C270.023381,991.662665 272.738935,985.754735 279.058274,986.553089 C285.377612,987.351443 283.554795,992.640087 287.827823,992.724784 C292.10085,992.80948 287.015155,989.634946 293.417147,991.51631 C299.81914,993.397675 253.506506,948.047313 254.729276,946.877121 C255.952046,945.70693 299.714215,990.205106 300.88831,988.26736 C302.062405,986.329615 301.661952,983.901887 301.661952,984.040339" id="Path-3-Copy-13"></path>
        </g>
    </g>
</svg>